<?xml version="1.0" standalone="no"?>
<!DOCTYPE svg PUBLIC "-//W3C//DTD SVG 20010904//EN"
 "http://www.w3.org/TR/2001/REC-SVG-20010904/DTD/svg10.dtd">
<svg version="1.0" xmlns="http://www.w3.org/2000/svg"
 width="291.000000pt" height="212.000000pt" viewBox="0 0 291.000000 212.000000"
 preserveAspectRatio="xMidYMid meet">

<g transform="translate(0.000000,212.000000) scale(0.100000,-0.100000)"
fill="#000000" stroke="none">
<path d="M0 1060 l0 -1060 1455 0 1455 0 0 1060 0 1060 -1455 0 -1455 0 0
-1060z m1295 420 c-6 -9 -1 -11 38 -14 6 -1 11 5 10 12 -4 15 2 15 27 0 15
-10 26 -10 52 0 24 9 29 9 20 0 -21 -21 -13 -26 30 -17 22 6 61 7 86 3 32 -5
43 -4 38 5 -8 13 -4 14 18 5 9 -3 13 -10 10 -15 -3 -5 5 -9 18 -8 13 0 17 3
10 6 -10 4 -9 8 5 19 22 16 69 18 78 3 5 -7 25 -8 59 -4 28 4 48 4 44 0 -12
-12 12 -35 36 -34 20 0 20 1 1 8 -17 7 -15 9 15 16 23 5 35 4 38 -4 2 -7 34
-12 80 -12 60 -1 69 -3 42 -9 -34 -7 -34 -7 13 -9 27 0 46 3 43 8 -3 5 2 12
11 15 9 4 20 2 23 -5 5 -7 17 -8 30 -4 17 5 21 4 15 -6 -6 -9 -3 -11 8 -6 10
3 17 2 17 -3 0 -6 6 -10 14 -10 8 0 21 -8 28 -18 7 -10 27 -28 43 -41 17 -12
30 -26 31 -29 1 -15 27 -99 36 -119 13 -26 4 -116 -11 -121 -7 -2 -8 -10 -1
-21 5 -10 7 -21 4 -23 -2 -3 -6 -15 -9 -27 -6 -31 -55 -92 -69 -84 -7 4 -6 1
1 -9 11 -12 8 -17 -15 -28 -15 -7 -30 -13 -34 -12 -5 1 -7 -4 -5 -11 1 -6 -6
-11 -15 -11 -10 1 -17 -1 -16 -5 2 -18 -3 -28 -14 -28 -7 0 -24 -3 -37 -7 -16
-6 -21 -5 -17 3 4 6 2 11 -3 11 -6 0 -11 -7 -11 -15 0 -16 -1 -16 -72 -18 -27
-1 -48 2 -48 7 0 5 -18 6 -39 2 -23 -3 -42 -2 -46 4 -8 13 -48 13 -62 -1 -8
-8 -20 -9 -40 -1 -25 8 -32 6 -58 -19 -38 -39 -90 -41 -99 -4 -8 31 -33 33
-38 3 -2 -18 -11 -24 -36 -26 -29 -3 -35 0 -45 27 -12 34 -37 42 -37 13 0 -43
-63 -58 -95 -22 -10 11 -30 20 -44 21 -24 0 -24 1 -6 9 18 8 17 9 -7 9 -22 1
-28 -4 -28 -19 0 -15 7 -20 25 -20 14 0 25 -4 25 -10 0 -5 -16 -10 -35 -10
-28 0 -35 4 -35 20 0 21 -22 18 -52 -7 -25 -22 -72 -13 -76 15 -3 16 -10 22
-28 22 -14 0 -23 4 -20 9 3 5 -13 11 -37 14 -23 2 -53 8 -67 12 -17 4 -21 4
-12 -3 11 -7 10 -11 -4 -16 -11 -4 -20 -2 -22 3 -2 7 -46 12 -110 13 l-107 2
80 6 80 6 -80 2 c-44 1 -94 -2 -110 -7 -22 -6 -34 -4 -44 6 -7 8 -19 12 -26 9
-7 -2 -23 7 -36 22 -13 14 -16 20 -6 13 12 -9 17 -10 17 -2 0 6 -6 14 -14 17
-17 7 -40 39 -51 73 -4 15 -4 21 3 17 6 -4 8 2 5 14 -5 19 -6 20 -20 3 -8 -10
-12 -12 -8 -5 4 7 4 21 0 30 -11 27 -8 164 4 195 6 16 11 33 11 38 0 5 7 9 15
9 14 0 19 11 16 38 -1 6 10 17 24 22 14 6 24 14 21 19 -10 16 35 45 69 45 29
0 31 2 17 13 -15 11 -15 11 4 7 12 -3 25 -1 28 5 8 12 134 15 163 4 12 -5 -7
-10 -52 -14 l-70 -5 85 -2 c60 -1 81 1 70 8 -11 8 21 10 105 9 157 -1 155 -1
149 14 -3 10 5 12 31 9 21 -3 35 0 35 7 0 6 7 11 16 11 8 0 12 -4 9 -10z
m-710 -149 c3 -5 2 -12 -3 -15 -5 -3 -9 1 -9 9 0 17 3 19 12 6z"/>
<path d="M1238 1453 c7 -3 16 -2 19 1 4 3 -2 6 -13 5 -11 0 -14 -3 -6 -6z"/>
<path d="M1308 1343 c12 -2 30 -2 40 0 9 3 -1 5 -23 4 -22 0 -30 -2 -17 -4z"/>
<path d="M753 1333 c9 -2 23 -2 30 0 6 3 -1 5 -18 5 -16 0 -22 -2 -12 -5z"/>
<path d="M1003 1333 c9 -2 23 -2 30 0 6 3 -1 5 -18 5 -16 0 -22 -2 -12 -5z"/>
<path d="M1235 1328 c-50 -27 -106 -97 -105 -130 1 -7 8 3 16 22 21 48 51 79
99 101 22 10 33 19 25 18 -8 0 -24 -5 -35 -11z"/>
<path d="M1406 1321 c22 -10 55 -36 73 -57 18 -22 28 -30 23 -19 -20 40 -93
95 -124 95 -7 0 5 -9 28 -19z"/>
<path d="M1648 1333 c6 -2 18 -2 25 0 6 3 1 5 -13 5 -14 0 -19 -2 -12 -5z"/>
<path d="M1960 1331 c25 -4 36 -12 41 -31 6 -21 7 -22 8 -4 1 29 -18 44 -53
43 l-31 -2 35 -6z"/>
<path d="M2133 1333 c9 -2 23 -2 30 0 6 3 -1 5 -18 5 -16 0 -22 -2 -12 -5z"/>
<path d="M1061 1313 c7 -12 15 -20 18 -17 3 2 -3 12 -13 22 -17 16 -18 16 -5
-5z"/>
<path d="M1811 1313 c7 -12 15 -20 18 -17 3 2 -3 12 -13 22 -17 16 -18 16 -5
-5z"/>
<path d="M1900 1315 c-6 -8 -10 -19 -8 -24 1 -6 8 1 15 14 13 28 11 31 -7 10z"/>
<path d="M2097 1323 c-4 -3 -7 -63 -7 -133 0 -87 -4 -130 -12 -140 -11 -12
-10 -12 4 -1 14 10 17 35 20 147 2 74 3 134 2 134 0 0 -4 -3 -7 -7z"/>
<path d="M2191 1313 c7 -12 15 -20 18 -17 3 2 -3 12 -13 22 -17 16 -18 16 -5
-5z"/>
<path d="M693 1295 c-3 -9 -3 -18 -1 -21 3 -3 8 4 11 16 6 23 -1 27 -10 5z"/>
<path d="M816 1297 c3 -10 9 -15 12 -12 3 3 0 11 -7 18 -10 9 -11 8 -5 -6z"/>
<path d="M931 1259 c-6 -18 -9 -34 -7 -36 2 -2 9 10 15 28 6 18 9 34 7 36 -2
2 -9 -10 -15 -28z"/>
<path d="M1081 1264 c0 -11 3 -14 6 -6 3 7 2 16 -1 19 -3 4 -6 -2 -5 -13z"/>
<path d="M2214 1165 c0 -60 1 -84 3 -52 2 32 2 81 0 110 -2 29 -3 3 -3 -58z"/>
<path d="M1810 1250 c-9 -6 -10 -10 -3 -10 6 0 15 5 18 10 8 12 4 12 -15 0z"/>
<path d="M1884 1160 c0 -58 1 -81 3 -52 2 28 2 76 0 105 -2 28 -3 5 -3 -53z"/>
<path d="M684 1150 c0 -58 1 -81 3 -52 2 28 2 76 0 105 -2 28 -3 5 -3 -53z"/>
<path d="M1313 1243 c9 -2 23 -2 30 0 6 3 -1 5 -18 5 -16 0 -22 -2 -12 -5z"/>
<path d="M1708 1243 c6 -2 18 -2 25 0 6 3 1 5 -13 5 -14 0 -19 -2 -12 -5z"/>
<path d="M1270 1225 c-7 -9 -11 -17 -9 -20 3 -2 10 5 17 15 14 24 10 26 -8 5z"/>
<path d="M1374 1222 c5 -7 13 -30 17 -50 7 -37 7 -37 8 -6 0 18 -7 40 -16 51
-10 10 -14 13 -9 5z"/>
<path d="M1684 1215 c1 -17 8 -20 51 -21 l50 -1 -47 4 c-34 3 -48 9 -51 21 -3
12 -4 11 -3 -3z"/>
<path d="M551 1204 c0 -11 3 -14 6 -6 3 7 2 16 -1 19 -3 4 -6 -2 -5 -13z"/>
<path d="M902 1184 c-7 -15 -17 -22 -24 -18 -7 5 -8 3 -3 -6 6 -10 12 -8 27 9
10 13 18 27 18 32 0 16 -6 10 -18 -17z"/>
<path d="M1093 1135 c0 -44 2 -61 4 -37 2 23 2 59 0 80 -2 20 -4 1 -4 -43z"/>
<path d="M1553 1155 c0 -33 2 -45 4 -27 2 18 2 45 0 60 -2 15 -4 0 -4 -33z"/>
<path d="M1252 1165 c0 -16 2 -22 5 -12 2 9 2 23 0 30 -3 6 -5 -1 -5 -18z"/>
<path d="M1806 1180 c7 -8 14 -24 17 -35 4 -19 5 -19 6 1 0 12 -7 28 -16 35
-16 12 -17 12 -7 -1z"/>
<path d="M1123 1145 c0 -22 2 -30 4 -17 2 12 2 30 0 40 -3 9 -5 -1 -4 -23z"/>
<path d="M1523 1145 c0 -22 2 -30 4 -17 2 12 2 30 0 40 -3 9 -5 -1 -4 -23z"/>
<path d="M971 1120 c-2 -8 -2 -44 -1 -80 2 -64 12 -90 33 -90 6 0 3 6 -6 13
-12 9 -17 32 -20 92 -1 44 -4 73 -6 65z"/>
<path d="M1391 1112 c0 -13 -13 -34 -27 -48 -14 -15 -20 -24 -13 -22 22 7 51
55 46 74 -4 16 -5 15 -6 -4z"/>
<path d="M790 1078 c0 -49 5 -47 13 5 3 20 2 37 -4 37 -5 0 -9 -19 -9 -42z"/>
<path d="M1251 1104 c0 -11 3 -14 6 -6 3 7 2 16 -1 19 -3 4 -6 -2 -5 -13z"/>
<path d="M2001 1104 c0 -11 3 -14 6 -6 3 7 2 16 -1 19 -3 4 -6 -2 -5 -13z"/>
<path d="M551 1094 c0 -11 3 -14 6 -6 3 7 2 16 -1 19 -3 4 -6 -2 -5 -13z"/>
<path d="M1723 1103 c15 -2 39 -2 55 0 15 2 2 4 -28 4 -30 0 -43 -2 -27 -4z"/>
<path d="M1131 1084 c0 -11 3 -14 6 -6 3 7 2 16 -1 19 -3 4 -6 -2 -5 -13z"/>
<path d="M1494 1054 c-11 -24 -17 -41 -12 -38 12 7 40 64 36 73 -2 4 -12 -12
-24 -35z"/>
<path d="M2010 1061 c0 -6 4 -13 10 -16 6 -3 7 1 4 9 -7 18 -14 21 -14 7z"/>
<path d="M929 1043 c-13 -16 -12 -17 4 -4 9 7 17 15 17 17 0 8 -8 3 -21 -13z"/>
<path d="M1150 1041 c5 -11 15 -23 21 -27 6 -3 3 5 -6 20 -20 30 -30 35 -15 7z"/>
<path d="M1288 1048 c6 -6 18 -8 28 -6 14 3 12 5 -9 10 -19 3 -25 2 -19 -4z"/>
<path d="M1689 1047 c4 -4 35 -7 67 -5 l59 3 -67 5 c-37 3 -63 1 -59 -3z"/>
<path d="M1890 1041 c0 -17 74 -91 91 -91 8 0 -1 9 -19 20 -18 11 -41 34 -52
52 -11 18 -20 27 -20 19z"/>
<path d="M2188 1020 c-9 -16 -32 -39 -50 -50 -18 -11 -28 -20 -21 -20 15 0 71
47 84 72 17 32 5 30 -13 -2z"/>
<path d="M858 1028 c6 -6 18 -8 28 -6 14 3 12 5 -9 10 -19 3 -25 2 -19 -4z"/>
<path d="M1081 1024 c0 -11 3 -14 6 -6 3 7 2 16 -1 19 -3 4 -6 -2 -5 -13z"/>
<path d="M1561 1024 c0 -11 3 -14 6 -6 3 7 2 16 -1 19 -3 4 -6 -2 -5 -13z"/>
<path d="M1066 985 c-9 -26 -7 -32 5 -12 6 10 9 21 6 23 -2 3 -7 -2 -11 -11z"/>
<path d="M1190 996 c0 -2 8 -10 18 -17 15 -13 16 -12 3 4 -13 16 -21 21 -21
13z"/>
<path d="M1598 973 c13 -13 28 -23 35 -23 7 0 3 6 -8 12 -11 6 -27 16 -35 22
-9 6 -5 1 8 -11z"/>
<path d="M700 981 c0 -10 29 -36 34 -30 1 2 -6 12 -16 22 -10 9 -18 13 -18 8z"/>
<path d="M790 978 c0 -9 -6 -19 -12 -21 -10 -4 -10 -6 0 -6 14 -1 28 26 18 36
-3 4 -6 -1 -6 -9z"/>
<path d="M1415 969 c-16 -10 -25 -19 -19 -19 7 0 22 9 35 20 30 24 23 24 -16
-1z"/>
<path d="M1790 960 c-8 -5 -10 -10 -5 -10 6 0 17 5 25 10 8 5 11 10 5 10 -5 0
-17 -5 -25 -10z"/>
<path d="M1303 943 c15 -2 39 -2 55 0 15 2 2 4 -28 4 -30 0 -43 -2 -27 -4z"/>
<path d="M1688 943 c12 -2 32 -2 45 0 12 2 2 4 -23 4 -25 0 -35 -2 -22 -4z"/>
<path d="M2008 943 c6 -2 18 -2 25 0 6 3 1 5 -13 5 -14 0 -19 -2 -12 -5z"/>
<path d="M2068 943 c6 -2 18 -2 25 0 6 3 1 5 -13 5 -14 0 -19 -2 -12 -5z"/>
<path d="M1498 843 c7 -3 16 -2 19 1 4 3 -2 6 -13 5 -11 0 -14 -3 -6 -6z"/>
<path d="M1863 843 c9 -2 23 -2 30 0 6 3 -1 5 -18 5 -16 0 -22 -2 -12 -5z"/>
<path d="M1938 833 c7 -3 16 -2 19 1 4 3 -2 6 -13 5 -11 0 -14 -3 -6 -6z"/>
<path d="M1182 815 c4 -25 43 -32 52 -10 5 13 1 15 -15 10 -13 -5 -25 -2 -31
6 -7 11 -8 9 -6 -6z"/>
<path d="M1550 809 c0 -12 7 -19 20 -19 11 0 20 6 20 14 0 7 -9 16 -20 19 -15
4 -20 0 -20 -14z"/>
<path d="M1410 810 c0 -15 27 -23 48 -15 16 7 15 8 -3 15 -28 12 -45 12 -45 0z"/>
<path d="M1678 793 c6 -2 18 -2 25 0 6 3 1 5 -13 5 -14 0 -19 -2 -12 -5z"/>
</g>
</svg>
