<?xml version="1.0" standalone="no"?>
<!DOCTYPE svg PUBLIC "-//W3C//DTD SVG 20010904//EN"
 "http://www.w3.org/TR/2001/REC-SVG-20010904/DTD/svg10.dtd">
<svg version="1.0" xmlns="http://www.w3.org/2000/svg"
 width="288.000000pt" height="208.000000pt" viewBox="0 0 288.000000 208.000000"
 preserveAspectRatio="xMidYMid meet">

<g transform="translate(0.000000,208.000000) scale(0.100000,-0.100000)"
fill="#000000" stroke="none">
<path d="M1266 1295 c-175 -62 -176 -314 -1 -381 202 -77 365 179 211 332 -60
60 -131 77 -210 49z m173 -33 c59 -36 86 -89 85 -165 -1 -47 -6 -66 -30 -100
-94 -135 -295 -105 -340 51 -52 176 128 311 285 214z"/>
<path d="M1282 1185 c-51 -64 -30 -171 36 -188 46 -11 78 11 92 63 12 45 0
109 -26 135 -25 24 -79 19 -102 -10z m103 -9 c9 -13 16 -44 17 -68 1 -77 -31
-112 -89 -96 -25 6 -34 16 -41 42 -11 38 -1 108 18 131 20 24 77 19 95 -9z"/>
<path d="M724 1277 c-26 -23 -28 -29 -31 -133 -3 -60 0 -127 5 -149 7 -31 8
-20 4 51 -9 168 13 244 71 244 32 0 48 -22 81 -107 15 -40 34 -73 41 -73 13 0
43 57 65 123 22 68 95 77 121 15 21 -52 18 -254 -4 -296 -16 -28 -23 -33 -50
-30 l-32 3 -5 85 -5 85 -21 -46 c-36 -77 -106 -74 -135 6 -7 19 -16 35 -21 35
-4 0 -8 -37 -10 -82 l-3 -83 -30 -3 c-19 -3 -33 2 -42 14 -7 10 -13 13 -13 7
0 -20 29 -34 62 -31 l33 3 5 75 c3 51 7 68 13 54 4 -11 18 -31 31 -43 33 -31
80 -21 107 22 l19 32 0 -60 c0 -34 5 -66 12 -73 17 -17 64 -15 82 3 25 25 39
122 32 219 -7 103 -20 137 -59 150 -47 17 -77 -8 -112 -94 -17 -41 -35 -74
-40 -73 -6 0 -21 31 -35 67 -14 36 -33 75 -43 86 -22 27 -60 25 -93 -3z"/>
<path d="M1624 1286 c-47 -21 -59 -62 -58 -192 2 -155 20 -180 135 -189 l64
-4 -60 9 c-68 11 -102 26 -116 52 -5 10 -11 71 -12 136 -3 168 16 192 152 192
73 0 106 -19 99 -57 -3 -15 -15 -19 -66 -21 -47 -2 -64 -7 -71 -21 -16 -28 2
-43 55 -43 58 0 81 -10 87 -40 l4 -23 2 22 c2 31 -35 53 -91 53 -41 0 -48 3
-48 20 0 17 8 19 68 22 l67 3 3 32 c5 46 -25 63 -113 63 -38 -1 -84 -7 -101
-14z"/>
<path d="M1919 1281 c-23 -18 -24 -25 -24 -149 0 -142 6 -159 69 -206 39 -30
153 -30 192 0 63 47 69 64 69 206 0 124 -1 131 -24 149 -26 21 -53 24 -82 9
-17 -10 -19 -22 -19 -138 0 -132 -6 -152 -42 -152 -30 0 -38 34 -38 157 0 79
-4 123 -12 131 -18 18 -63 14 -89 -7z m91 -134 c5 -146 9 -157 57 -157 35 0
43 30 43 157 0 79 4 123 12 131 16 16 50 15 73 -2 16 -12 19 -30 23 -132 3
-103 1 -124 -16 -154 -57 -104 -228 -104 -283 0 -33 61 -23 268 13 292 7 4 27
7 43 6 l30 -3 5 -138z"/>
<path d="M1758 1073 c-44 -3 -60 -9 -68 -23 -19 -36 -3 -49 68 -52 61 -3 67
-5 70 -26 4 -28 -12 -49 -41 -55 l-22 -4 22 -2 c29 -1 53 24 53 59 0 34 -14
40 -85 40 -56 0 -69 8 -59 34 5 12 20 16 58 16 28 0 58 5 66 10 8 5 11 9 5 8
-5 -1 -36 -3 -67 -5z"/>
<path d="M1185 820 c-3 -6 1 -7 9 -4 18 7 21 14 7 14 -6 0 -13 -4 -16 -10z"/>
<path d="M1235 820 c3 -5 8 -10 11 -10 2 0 4 5 4 10 0 6 -5 10 -11 10 -5 0 -7
-4 -4 -10z"/>
<path d="M1303 785 c0 -27 2 -38 4 -22 2 15 2 37 0 50 -2 12 -4 0 -4 -28z"/>
<path d="M1415 820 c-3 -6 1 -7 9 -4 18 7 21 14 7 14 -6 0 -13 -4 -16 -10z"/>
<path d="M1472 816 c7 -8 15 -12 17 -11 5 6 -10 25 -20 25 -5 0 -4 -6 3 -14z"/>
<path d="M1543 795 c0 -22 2 -30 4 -17 2 12 2 30 0 40 -3 9 -5 -1 -4 -23z"/>
<path d="M1613 795 c0 -22 2 -30 4 -17 2 12 2 30 0 40 -3 9 -5 -1 -4 -23z"/>
<path d="M1673 785 c0 -27 2 -38 4 -22 2 15 2 37 0 50 -2 12 -4 0 -4 -28z"/>
<path d="M1171 784 c0 -11 3 -14 6 -6 3 7 2 16 -1 19 -3 4 -6 -2 -5 -13z"/>
<path d="M1401 784 c0 -11 3 -14 6 -6 3 7 2 16 -1 19 -3 4 -6 -2 -5 -13z"/>
<path d="M1741 784 c0 -11 3 -14 6 -6 3 7 2 16 -1 19 -3 4 -6 -2 -5 -13z"/>
</g>
</svg>
